<svg xmlns="http://www.w3.org/2000/svg" xmlns:xlink="http://www.w3.org/1999/xlink" viewBox="0 0 108.147 105.083" fill="#fff" fill-rule="evenodd" stroke="#000" stroke-linecap="round" stroke-linejoin="round"><use xlink:href="#A" x="2.105" y="1.042"/><symbol id="A" overflow="visible"><g stroke="none" fill-rule="nonzero"><path d="M.175 0H82.6v102.221H.175z"/><path d="M49.183 60.091l23.529-23.529 15.367 15.367L64.75 75.258" fill="#f4aa41"/><path d="M45.042 73.838l4.083-11.767 13.446 13.446L50.8 79.6" fill="#a57939"/><path d="M79.767 28.488l8.292-8.292 16.371 16.371-8.219 8.219" fill="#ea5a47"/><path d="M71.192 38.088l9.598-9.598 15.367 15.365-9.517 9.517" fill="#d0cfce"/></g><path d="M12.5 17.702h56.25M12.5 34.369h53.333M12.5 51.035h35.625M12.5 67.702h25.433M12.502 84.369H33.64" fill="none" stroke-width="4.167" stroke-miterlimit="10"/><path d="M45.309 74.608l4.971 4.971-7.217 2.667z" stroke="none" fill="#000" fill-rule="nonzero"/><g fill="none"><g stroke-width="4.167"><path d="M50.771 79.609l11.8-4.098 32.5-32.5-13.446-13.446-32.5 32.5-4.112 11.813z"/><path d="M87.009 24.184l3.242-3.24 13.446 13.446-3.4 3.4M49.913 61.281l13.446 13.446m-18.338-.875l-2.881 8.646 8.663-2.9m22.073-40.479L85.796 52.04"/></g><path d="M81.25 68.437v32.598H0v-100h81.25v17.617" stroke-width="4.21"/></g></symbol></svg>